<?xml version="1.0" encoding="utf-8"?>
<!-- Generator: Adobe Illustrator 17.1.0, SVG Export Plug-In . SVG Version: 6.00 Build 0)  -->
<!DOCTYPE svg PUBLIC "-//W3C//DTD SVG 1.1//EN" "http://www.w3.org/Graphics/SVG/1.1/DTD/svg11.dtd">
<svg version="1.1" id="Layer_1" xmlns="http://www.w3.org/2000/svg" xmlns:xlink="http://www.w3.org/1999/xlink" x="0px" y="0px"
	 viewBox="0 0 340.2 72.1" enable-background="new 0 0 340.2 72.1" xml:space="preserve">
<polygon points="13.4,14.7 15.6,14.7 3.3,26.7 16.3,39.7 14.2,39.7 2.2,27.7 1.6,28.4 1.6,39.7 0,39.7 0,14.7 1.6,14.7 1.6,26.3 "/>
<path d="M18.7,31.9c0,3.5,2.3,6.7,6,6.7c3.9,0,6-3.2,6-6.9c0-3.5-2.4-6.3-6.1-6.3C21.1,25.4,18.7,28.6,18.7,31.9 M32.1,39.7h-1.5
	v-2.7h-0.1c-1.1,2-3.6,3.1-5.8,3.1c-4.6,0-7.5-3.6-7.5-8.1c0-4.5,2.9-7.9,7.5-7.9c2.4,0,4.6,1.1,5.9,3h0.1v-2.6h1.5V39.7z"/>
<path d="M38.6,32.3c0,3.6,2.4,6.3,6.1,6.3c3.6,0,6-3,6-6.4c0-3.5-2.3-6.8-6-6.8C40.8,25.4,38.6,28.7,38.6,32.3 M38.7,27.1L38.7,27.1
	c1.2-2,3.6-3.1,5.9-3.1c4.7,0,7.5,3.6,7.5,8.1c0,4.5-2.9,7.8-7.5,7.8c-2.3,0-4.6-1-5.9-3h-0.1v11.6h-1.5V24.4h1.5V27.1z"/>
<path d="M57.2,32.3c0,3.6,2.4,6.3,6.1,6.3c3.6,0,6-3,6-6.4c0-3.5-2.3-6.8-6-6.8C59.3,25.4,57.2,28.7,57.2,32.3 M57.3,27.1L57.3,27.1
	c1.2-2,3.6-3.1,5.9-3.1c4.7,0,7.5,3.6,7.5,8.1c0,4.5-2.9,7.8-7.5,7.8c-2.3,0-4.6-1-5.9-3h-0.1v11.6h-1.5V24.4h1.5V27.1z"/>
<path d="M74.3,31.9c0,3.5,2.3,6.7,6,6.7c3.9,0,6-3.2,6-6.9c0-3.5-2.4-6.3-6.1-6.3C76.8,25.4,74.3,28.6,74.3,31.9 M87.8,39.7h-1.5
	v-2.7h-0.1c-1.1,2-3.6,3.1-5.8,3.1c-4.6,0-7.5-3.6-7.5-8.1c0-4.5,2.9-7.9,7.5-7.9c2.4,0,4.6,1.1,5.9,3h0.1v-2.6h1.5V39.7z"/>
<polygon points="116.7,14.7 118.8,14.7 106.6,26.7 119.6,39.7 117.5,39.7 105.5,27.7 104.9,28.4 104.9,39.7 103.3,39.7 103.3,14.7 
	104.9,14.7 104.9,26.3 "/>
<path d="M122,31.9c0,3.5,2.3,6.7,6,6.7c3.9,0,6-3.2,6-6.9c0-3.5-2.4-6.3-6.1-6.3C124.4,25.4,122,28.6,122,31.9 M135.4,39.7h-1.5
	v-2.7h-0.1c-1.1,2-3.6,3.1-5.8,3.1c-4.6,0-7.5-3.6-7.5-8.1c0-4.5,2.9-7.9,7.5-7.9c2.4,0,4.6,1.1,5.9,3h0.1v-2.6h1.5V39.7z"/>
<path d="M141.9,32.3c0,3.6,2.4,6.3,6.1,6.3c3.6,0,6-3,6-6.4c0-3.5-2.3-6.8-6-6.8C144,25.4,141.9,28.7,141.9,32.3 M142,27.1L142,27.1
	c1.2-2,3.6-3.1,5.9-3.1c4.7,0,7.5,3.6,7.5,8.1c0,4.5-2.9,7.8-7.5,7.8c-2.3,0-4.6-1-5.9-3H142v11.6h-1.5V24.4h1.5V27.1z"/>
<path d="M160.5,32.3c0,3.6,2.4,6.3,6.1,6.3c3.6,0,6-3,6-6.4c0-3.5-2.3-6.8-6-6.8C162.6,25.4,160.5,28.7,160.5,32.3 M160.6,27.1
	L160.6,27.1c1.2-2,3.6-3.1,5.9-3.1c4.7,0,7.5,3.6,7.5,8.1c0,4.5-2.9,7.8-7.5,7.8c-2.3,0-4.6-1-5.9-3h-0.1v11.6h-1.5V24.4h1.5V27.1z"
	/>
<path d="M177.6,31.9c0,3.5,2.3,6.7,6,6.7c3.9,0,6-3.2,6-6.9c0-3.5-2.4-6.3-6.1-6.3C180,25.4,177.6,28.6,177.6,31.9 M191,39.7h-1.5
	v-2.7h-0.1c-1.1,2-3.6,3.1-5.8,3.1c-4.6,0-7.5-3.6-7.5-8.1c0-4.5,2.9-7.9,7.5-7.9c2.4,0,4.6,1.1,5.9,3h0.1v-2.6h1.5V39.7z"/>
<path d="M229.9,27.6c0.1,3.1-0.4,5.9-2.6,8.3c-2.4,2.6-6,4-9.5,4c-6.9,0-12.8-5.8-12.8-12.7c0-7.1,5.9-12.9,13-12.9
	c4.5,0,8.2,2.2,10.8,5.8l-1.3,1c-2.2-3.3-5.6-5.4-9.6-5.4c-6.1,0-11.3,5.3-11.3,11.3c0,6.2,5.1,11.3,11.3,11.3
	c2.7,0,5.3-1.1,7.3-2.7c2.2-1.8,2.9-3.9,3-6.6h-8.9v-1.5H229.9z"/>
<path d="M233.7,31.9c0,3.5,2.3,6.7,6,6.7c3.9,0,6-3.2,6-6.9c0-3.5-2.4-6.3-6.1-6.3C236.1,25.4,233.7,28.6,233.7,31.9 M247.1,39.7
	h-1.5v-2.7h-0.1c-1.1,2-3.6,3.1-5.8,3.1c-4.6,0-7.5-3.6-7.5-8.1c0-4.5,2.9-7.9,7.5-7.9c2.3,0,4.6,1.1,5.9,3h0.1v-2.6h1.5V39.7z"/>
<path d="M253.7,26.3L253.7,26.3c0.8-1.4,2.3-2.3,3.9-2.3c2,0,3.5,1,4.3,2.8c0.8-1.8,2.5-2.8,4.5-2.8c3.9,0,4.7,2.7,4.7,6v9.6h-1.5
	v-9.8c0-2.3-0.4-4.4-3.3-4.4c-3.2,0-3.9,2.8-3.9,5.4v8.8h-1.5v-9.4c0-2.4-0.4-4.8-3.4-4.8c-3.2,0-3.8,3.3-3.8,5.8v8.4h-1.5V24.4h1.5
	V26.3z"/>
<path d="M277.7,26.3L277.7,26.3c0.8-1.4,2.3-2.3,3.9-2.3c2,0,3.5,1,4.3,2.8c0.8-1.8,2.5-2.8,4.5-2.8c3.9,0,4.7,2.7,4.7,6v9.6h-1.5
	v-9.8c0-2.3-0.4-4.4-3.3-4.4c-3.2,0-3.9,2.8-3.9,5.4v8.8H285v-9.4c0-2.4-0.4-4.8-3.4-4.8c-3.2,0-3.8,3.3-3.8,5.8v8.4h-1.5V24.4h1.5
	V26.3z"/>
<path d="M300.3,31.9c0,3.5,2.3,6.7,6,6.7c3.9,0,6-3.2,6-6.9c0-3.5-2.4-6.3-6.1-6.3C302.7,25.4,300.3,28.6,300.3,31.9 M313.7,39.7
	h-1.5v-2.7h-0.1c-1.1,2-3.6,3.1-5.8,3.1c-4.6,0-7.5-3.6-7.5-8.1c0-4.5,2.9-7.9,7.5-7.9c2.4,0,4.6,1.1,5.9,3h0.1v-2.6h1.5V39.7z"/>
<path d="M233,50.2c-0.1,0-0.2,0-0.4,0c-0.7,0-1.3,0.2-1.9,0.7c-0.6,0.5-1.1,0.9-1.5,1.4c-0.2,0.3-0.5,0.6-0.8,1
	c-0.3,0.4-0.6,0.8-0.8,1.3c-0.2,0.5-0.5,0.9-0.6,1.4c-0.2,0.5-0.3,0.9-0.3,1.3c0,0.2,0,0.4,0.1,0.6c0.1,0.2,0.2,0.3,0.5,0.3
	c0.2,0,0.4-0.1,0.7-0.2c0.2-0.1,0.4-0.3,0.7-0.5c0.2-0.2,0.4-0.4,0.6-0.6c0.2-0.2,0.3-0.4,0.4-0.5c0.7-0.9,1.3-1.9,1.9-2.9
	C232,52.3,232.5,51.3,233,50.2 M233.9,59.2c-0.5,0-0.9-0.1-1.2-0.3c-0.3-0.2-0.6-0.5-0.8-0.8c-0.2-0.3-0.3-0.7-0.4-1.1
	c-0.1-0.4-0.1-0.8-0.1-1.3v-0.6c0-0.2,0-0.4,0.1-0.6c-0.2,0.4-0.5,0.9-0.9,1.4c-0.4,0.6-0.8,1.1-1.2,1.6c-0.4,0.5-0.9,0.9-1.4,1.3
	s-1,0.6-1.4,0.6c-0.5,0-0.8-0.1-1-0.4c-0.2-0.3-0.3-0.6-0.3-1c0-0.7,0.2-1.5,0.6-2.5c0.4-0.9,0.9-1.8,1.5-2.7c0.6-0.9,1.3-1.7,2-2.4
	c0.7-0.7,1.4-1.1,2-1.4c0.5-0.2,1-0.3,1.4-0.3c0.4,0,0.8,0.1,1.2,0.2c0.4,0.2,0.7,0.4,1,0.8c0,0.1,0.1,0.1,0.1,0.1c0,0,0,0.1,0,0.1
	c0,0.1-0.1,0.1-0.2,0.1c-0.2,0-0.3,0.1-0.5,0.3c-0.2,0.3-0.3,0.6-0.4,1c-0.1,0.4-0.2,0.9-0.3,1.3c-0.1,0.5-0.1,0.9-0.2,1.4
	c0,0.4-0.1,0.8-0.1,1.1c0,0.2,0,0.5,0,0.8c0,0.3,0.1,0.7,0.2,1c0.1,0.3,0.2,0.6,0.4,0.8c0.2,0.2,0.4,0.3,0.7,0.3
	c0.4,0,0.8-0.2,1.3-0.6c0.5-0.4,0.9-0.9,1.3-1.4c0.4-0.5,0.8-1,1.1-1.4c0.3-0.4,0.6-0.6,0.7-0.6c0.1,0,0.1,0.1,0.1,0.2
	c0,0.2-0.1,0.4-0.2,0.6c-0.2,0.3-0.4,0.6-0.7,1c-0.3,0.4-0.6,0.7-0.9,1.1c-0.3,0.4-0.6,0.7-0.9,1c-0.3,0.3-0.6,0.5-1,0.7
	c-0.2,0.1-0.5,0.2-0.7,0.3C234.4,59.2,234.2,59.2,233.9,59.2"/>
<path d="M243.6,56.4c0-0.5-0.1-1-0.2-1.6c-0.2-0.6-0.3-1.2-0.5-1.8c-0.2-0.6-0.3-1.2-0.5-1.7c-0.1-0.5-0.2-0.9-0.1-1.3
	c-0.6,0.9-1.2,1.9-1.8,2.8c-0.6,0.9-1.3,1.8-2,2.6c0.8,0.4,1.6,0.7,2.5,0.9c0.9,0.2,1.7,0.4,2.6,0.4V56.4z M243.4,57.8
	c-0.9,0-1.9-0.1-2.9-0.3c-1-0.2-1.9-0.6-2.7-1.1l-0.1,0.1c0.3,0.7,0.8,1.4,1.4,1.9c0.6,0.6,1.3,0.8,2.1,0.8c0.5,0,0.9-0.1,1.3-0.4
	C242.9,58.6,243.2,58.2,243.4,57.8 M245.3,57.6c-0.2,0.9-0.6,1.5-1.3,2c-0.7,0.5-1.4,0.7-2.3,0.7c-0.6,0-1.2-0.1-1.8-0.4
	c-0.6-0.2-1.2-0.6-1.7-1c-0.5-0.4-0.9-0.9-1.2-1.5c-0.3-0.6-0.5-1.2-0.5-1.8c0-0.2,0-0.5,0.1-0.8c0.1-0.3,0.3-0.4,0.5-0.4
	c0.2,0,0.4,0.1,0.5,0.2c0.1,0.1,0.3,0.3,0.4,0.4c0.5-0.5,1-1.2,1.5-2.2c0.5-0.9,1-1.8,1.6-2.7c0.6-0.9,1.2-1.7,1.9-2.3s1.4-1,2.3-1
	c0.3,0,0.7,0.1,1.1,0.4c0.4,0.2,0.6,0.5,0.6,0.9c0,0.2-0.1,0.4-0.4,0.4c-0.2,0-0.4,0-0.6,0c-0.6,0-1.2,0.2-1.7,0.6
	c-0.6,0.4-0.8,0.9-0.8,1.6c0,0.1,0,0.3,0,0.4c0,0.1,0.1,0.2,0.1,0.3c0.3,0.9,0.6,1.8,1,2.7c0.4,0.9,0.6,1.8,0.6,2.8
	c0.9-0.1,1.6-0.4,2.3-0.8c0.6-0.4,1.2-0.9,1.8-1.7c0.1-0.1,0.2-0.1,0.2-0.1c0.1,0,0.2,0,0.2,0.1c0,0.1,0,0.2,0,0.2
	c0,0.1,0,0.2-0.1,0.3c-0.5,0.8-1.2,1.4-2,1.9C247,57.1,246.2,57.4,245.3,57.6"/>
<path d="M252.5,58c0.3,0.2,0.5,0.5,0.7,0.8c0.2,0.3,0.4,0.6,0.7,0.8c0.6-0.3,1.2-0.8,1.8-1.5c0.6-0.7,1.1-1.5,1.5-2.4
	c0.4-0.9,0.8-1.8,1.1-2.7c0.3-0.9,0.4-1.7,0.4-2.4c0-0.2,0-0.5-0.1-0.8c-0.1-0.3-0.3-0.5-0.6-0.5c-0.1,0-0.2,0-0.4,0.1
	c-0.6,0.2-1.1,0.7-1.7,1.4c-0.5,0.7-1,1.5-1.5,2.4c-0.5,0.9-0.9,1.7-1.2,2.6C252.9,56.7,252.6,57.4,252.5,58 M250.9,58
	C250.9,58,250.9,58,250.9,58c-0.2,0-0.3,0-0.4,0.1c-0.1,0.1-0.2,0.2-0.2,0.2c-0.5,0.7-1.1,1.4-1.5,2.2c-0.5,0.7-0.9,1.5-1.4,2.2
	c-0.2,0.3-0.5,0.8-1,1.5c-0.4,0.7-0.8,1.4-1.2,2.2c-0.4,0.8-0.8,1.5-1.1,2.3c-0.3,0.7-0.5,1.2-0.5,1.6c0,0.1,0,0.2,0,0.2
	c0,0.1,0.1,0.1,0.2,0.1c0.4,0,0.9-0.2,1.4-0.7c0.5-0.5,1-1.1,1.5-1.7c0.5-0.7,0.9-1.3,1.3-2c0.4-0.7,0.7-1.2,0.8-1.5
	c0.4-0.8,0.8-1.7,1.1-2.6c0.3-0.9,0.5-1.9,0.7-2.8c0-0.1,0-0.2,0-0.4C250.7,58.6,250.7,58.3,250.9,58 M255.2,60.5
	c-0.4,0-0.8,0-1.1,0c-0.3,0-0.7,0-1.1,0c-0.2,0-0.4,0-0.6-0.1c-0.2-0.1-0.4-0.1-0.6-0.2c-0.2,0.4-0.4,1-0.8,1.8
	c-0.3,0.8-0.8,1.6-1.2,2.5c-0.5,0.9-1,1.8-1.5,2.7c-0.5,0.9-1.1,1.7-1.7,2.5c-0.6,0.8-1.1,1.4-1.7,1.8c-0.6,0.5-1.1,0.7-1.6,0.7
	c-0.4,0-0.7-0.2-0.8-0.5c-0.1-0.3-0.2-0.7-0.2-1c0-0.6,0.2-1.2,0.5-2c0.3-0.8,0.8-1.7,1.3-2.6c0.6-0.9,1.2-1.9,1.9-2.9
	c0.7-1,1.4-2,2-2.9c0.7-0.9,1.3-1.8,1.9-2.5c0.6-0.8,1.1-1.4,1.4-1.9v-0.2c0-0.4,0-0.9,0-1.3c0-0.4,0-0.9,0-1.3
	c-0.1,0.1-0.2,0.3-0.4,0.6c-0.2,0.3-0.4,0.6-0.6,0.9c-0.2,0.3-0.4,0.6-0.6,0.8c-0.2,0.2-0.3,0.4-0.4,0.4c-0.2,0-0.2-0.1-0.2-0.3
	c0-0.1,0-0.2,0.1-0.3c0.2-0.3,0.4-0.6,0.6-1c0.2-0.4,0.4-0.8,0.6-1.2c0.2-0.4,0.3-0.8,0.4-1.3c0.1-0.4,0.2-0.8,0.2-1.1
	c0-0.4-0.1-0.6-0.2-0.7c-0.2-0.1-0.2-0.2-0.2-0.2c0-0.1,0.1-0.1,0.2-0.2c0.1,0,0.3-0.1,0.4-0.1c0.1,0,0.3,0,0.4,0c0.1,0,0.2,0,0.3,0
	c0.3,0,0.6,0.1,0.8,0.3c0.2,0.2,0.3,0.4,0.4,0.7c0.1,0.3,0.2,0.6,0.2,0.9c0,0.3,0,0.6,0,0.9c0,0.4,0,0.8-0.1,1.2
	c0,0.4-0.1,0.8-0.1,1.2c0.2-0.4,0.6-1,1-1.7c0.5-0.7,1-1.5,1.5-2.2c0.6-0.7,1.2-1.3,1.8-1.9c0.6-0.5,1.2-0.8,1.8-0.8
	c0.6,0,0.9,0.2,1.1,0.6c0.2,0.4,0.2,0.9,0.2,1.3c0,0.8-0.2,1.7-0.5,2.7c-0.3,1-0.7,2-1.2,2.9c-0.5,1-1.1,1.8-1.7,2.6
	c-0.6,0.8-1.3,1.4-2,1.9c0.8,0,1.5-0.2,2.3-0.6c0.8-0.4,1.5-0.8,2.2-1.4c0.7-0.6,1.3-1.1,1.9-1.8c0.6-0.6,1.1-1.2,1.6-1.8
	c0,0,0.1-0.1,0.1-0.1c0-0.1,0.1-0.1,0.1-0.1c0.1,0,0.1,0,0.1,0.1c0,0.1,0,0.1,0,0.2c0,0.1,0,0.3-0.1,0.4c-0.1,0.1-0.1,0.2-0.2,0.3
	c-0.3,0.5-0.8,1.1-1.4,1.8c-0.6,0.6-1.3,1.3-2.1,1.8c-0.8,0.6-1.5,1-2.3,1.4C256.6,60.3,255.8,60.5,255.2,60.5"/>
<path d="M266.7,48.2c-0.3,0-0.5-0.1-0.7-0.3c-0.2-0.2-0.3-0.4-0.3-0.7c0-0.3,0.1-0.6,0.4-0.9c0.3-0.3,0.6-0.4,0.9-0.4
	c0.3,0,0.5,0.1,0.7,0.3c0.2,0.2,0.3,0.4,0.3,0.7c0,0.3-0.1,0.6-0.4,0.9C267.4,48.1,267.1,48.2,266.7,48.2 M264.1,60.1
	c-0.7,0-1.3-0.2-1.7-0.7c-0.4-0.5-0.6-1.1-0.6-1.8c0-0.4,0.1-1,0.2-1.6c0.2-0.6,0.4-1.2,0.6-1.8c0.2-0.6,0.5-1.2,0.8-1.8
	c0.3-0.6,0.5-1,0.8-1.3c0.1-0.2,0.3-0.4,0.6-0.4c0.2,0,0.5,0.1,0.7,0.3c0.2,0.2,0.3,0.5,0.3,0.7c0,0.1,0,0.2,0,0.2
	c0,0.1-0.1,0.1-0.1,0.2c-0.5,0.8-1,1.7-1.4,2.6c-0.4,0.9-0.7,1.8-0.7,2.8c0,0.4,0.1,0.7,0.2,1c0.2,0.3,0.4,0.5,0.8,0.5
	c0.7,0,1.3-0.3,2-0.8c0.7-0.5,1.3-1.1,1.9-1.7c0.6-0.6,1-1.2,1.4-1.7c0.4-0.5,0.6-0.8,0.7-0.8c0.1,0,0.1,0,0.2,0.1
	c0,0.1,0,0.2,0,0.2c0,0.2-0.1,0.4-0.3,0.7c-0.4,0.5-0.8,1-1.2,1.6c-0.5,0.6-1,1.1-1.5,1.6c-0.6,0.5-1.1,0.9-1.7,1.3
	C265.4,59.9,264.8,60.1,264.1,60.1"/>
<path d="M276.5,60.1c-0.9,0-1.5-0.2-1.8-0.7c-0.3-0.5-0.5-1.1-0.5-1.9c0-0.9,0.2-1.8,0.5-2.8c0.3-1,0.8-1.9,1.2-2.6
	c-0.1,0.1-0.2,0.1-0.3,0.1h-0.3c-0.2,0-0.4,0-0.6-0.1c-0.2-0.1-0.5-0.2-0.7-0.3c-0.2-0.1-0.4-0.3-0.5-0.5c-0.1-0.2-0.2-0.4-0.2-0.6
	c-0.1,0.2-0.3,0.6-0.6,1.2s-0.7,1.2-1.1,1.8c-0.4,0.6-0.8,1.2-1.2,1.7c-0.4,0.5-0.7,0.7-0.9,0.7c-0.1,0-0.2-0.1-0.2-0.2
	c0-0.1,0-0.2,0.1-0.2c0-0.1,0.1-0.2,0.1-0.2c0.7-0.9,1.3-1.8,1.8-2.7c0.5-0.9,1-1.9,1.5-2.9c0-0.1,0-0.3-0.1-0.5c0-0.2,0-0.3,0-0.5
	c0-0.2,0-0.5,0.1-0.9c0.1-0.4,0.1-0.8,0.3-1.3c0.1-0.4,0.3-0.8,0.5-1.1c0.2-0.3,0.4-0.5,0.7-0.5c0.2,0,0.3,0.1,0.5,0.2
	c0.1,0.1,0.3,0.3,0.4,0.5c0.1,0.2,0.2,0.4,0.2,0.6c0,0.2,0.1,0.4,0.1,0.5c0,0.2-0.1,0.5-0.2,0.8c-0.1,0.3-0.3,0.5-0.4,0.8
	c-0.2,0.3-0.3,0.5-0.5,0.8c-0.2,0.2-0.4,0.5-0.5,0.6c0.1,0.3,0.3,0.6,0.5,0.9c0.2,0.3,0.5,0.4,0.9,0.4c0.3,0,0.6-0.1,0.8-0.2
	c0.2-0.2,0.4-0.3,0.6-0.6c0.2-0.2,0.3-0.4,0.5-0.6c0.2-0.2,0.3-0.2,0.5-0.2c0.2,0,0.5,0.1,0.7,0.3c0.2,0.2,0.3,0.4,0.3,0.7
	c0,0.1-0.2,0.4-0.5,0.9c-0.3,0.5-0.6,1.1-1,1.8c-0.4,0.7-0.7,1.4-1,2.2c-0.3,0.8-0.5,1.5-0.5,2.1c0,1,0.5,1.4,1.4,1.4
	c0.7,0,1.3-0.3,2-0.8c0.7-0.5,1.3-1.1,1.8-1.7c0.6-0.6,1-1.2,1.4-1.7c0.4-0.5,0.6-0.8,0.7-0.8c0.1,0,0.1,0,0.1,0.1
	c0,0.1,0,0.1,0,0.2c0,0.1,0,0.3-0.1,0.4c-0.1,0.1-0.1,0.2-0.2,0.3c-0.3,0.5-0.7,1-1.2,1.7c-0.5,0.6-1,1.2-1.5,1.7
	c-0.6,0.5-1.2,0.9-1.8,1.3C277.8,59.9,277.1,60.1,276.5,60.1"/>
<path d="M286.7,49.8c-0.2,0-0.5,0.2-0.9,0.6c-0.3,0.4-0.6,0.8-0.9,1.3c-0.3,0.5-0.6,1-0.8,1.5c-0.2,0.5-0.4,0.8-0.5,1.1
	c0.3-0.1,0.7-0.4,1.1-0.6c0.4-0.3,0.8-0.6,1.2-1c0.4-0.4,0.7-0.7,1-1.2c0.3-0.4,0.4-0.8,0.4-1.2C287.2,50,287,49.8,286.7,49.8
	 M284.1,59.4c-1,0-1.6-0.3-2-1c-0.4-0.6-0.6-1.4-0.6-2.3c0-0.7,0.2-1.4,0.5-2.3c0.3-0.9,0.8-1.7,1.3-2.4c0.6-0.8,1.2-1.4,1.9-1.9
	c0.7-0.5,1.4-0.8,2.2-0.8c0.3,0,0.5,0.1,0.7,0.4c0.2,0.3,0.3,0.5,0.3,0.8c0,0.5-0.2,1-0.6,1.5c-0.4,0.6-0.8,1.1-1.4,1.6
	c-0.5,0.5-1.1,0.9-1.7,1.3c-0.6,0.4-1.1,0.7-1.5,0.8c-0.1,0.3-0.2,0.6-0.2,0.9c-0.1,0.3-0.1,0.6-0.1,0.9c0,0.5,0.1,0.9,0.4,1.2
	c0.2,0.3,0.6,0.5,1.2,0.5c0.5,0,1.1-0.1,1.6-0.3c0.6-0.2,1.1-0.5,1.6-0.9s1-0.7,1.5-1.2c0.5-0.4,0.9-0.8,1.2-1.2
	c0.1-0.1,0.1-0.2,0.2-0.3c0.1-0.1,0.2-0.1,0.4-0.1c0.1,0,0.2,0.1,0.2,0.2c0,0.1,0,0.1-0.1,0.2c-0.3,0.5-0.8,1-1.3,1.6
	c-0.5,0.5-1.1,1-1.8,1.4c-0.6,0.4-1.3,0.8-2,1C285.4,59.2,284.7,59.4,284.1,59.4"/>
<path d="M298.6,59.6c-0.5,0-0.9-0.1-1.2-0.3c-0.3-0.2-0.5-0.5-0.7-0.8c-0.2-0.3-0.3-0.7-0.4-1.1c-0.1-0.4-0.1-0.8-0.1-1.2
	c0-0.9,0.1-1.9,0.4-2.9c0.3-1,0.6-1.9,1.1-2.8c-0.2,0-0.4,0-0.7,0c-0.3,0-0.6-0.1-1-0.1c-0.3-0.1-0.6-0.2-0.8-0.3
	c-0.2-0.1-0.4-0.3-0.4-0.6c0-0.1,0-0.1,0.1-0.2c0.1,0,0.2-0.1,0.3-0.1c0.5,0,1,0,1.6,0.1c0.5,0.1,1.1,0.1,1.6,0.1
	c0.3-0.4,0.6-0.9,0.9-1.5c0.3-0.6,0.6-1.2,1-1.8c0.3-0.6,0.7-1.2,1-1.7c0.3-0.5,0.7-1,1-1.3c0.2-0.2,0.5-0.4,0.7-0.5
	c0.3-0.1,0.6-0.1,0.9-0.1c0.1,0,0.3,0,0.5,0.1c0.3,0,0.4,0.1,0.4,0.3c0,0,0,0,0,0.1c0,0,0,0,0,0.1c-0.2,0.3-0.5,0.7-0.8,1.1
	c-0.3,0.4-0.6,0.7-0.8,1.1c-0.5,0.7-1,1.4-1.5,2.1c-0.5,0.7-1,1.5-1.4,2.2c0.3,0,0.6,0,0.8,0h0.8c0.3,0,0.6,0,0.9,0
	c0.3,0,0.6,0,0.9,0c0.1,0,0.1,0,0.3,0c0.1,0,0.2,0.1,0.2,0.2c0,0.2-0.2,0.3-0.6,0.4c-0.4,0.1-0.8,0.2-1.3,0.2c-0.5,0-1,0.1-1.4,0.1
	c-0.5,0-0.8,0-0.9,0c-0.2,0.3-0.4,0.7-0.7,1.3c-0.2,0.5-0.4,1-0.6,1.6c-0.2,0.6-0.3,1.1-0.4,1.7c-0.1,0.5-0.2,1-0.2,1.4
	c0,0.6,0.1,1,0.3,1.5c0.2,0.4,0.6,0.7,1.3,0.7c0.5,0,1-0.1,1.6-0.4c0.6-0.3,1.2-0.6,1.7-1c0.6-0.4,1.1-0.8,1.6-1.3
	c0.5-0.5,0.9-0.9,1.1-1.3c0.1-0.1,0.1-0.2,0.2-0.2c0.1-0.1,0.2-0.1,0.3-0.1c0.1,0,0.2,0.1,0.2,0.2c0,0.1-0.1,0.2-0.2,0.4
	c-0.3,0.4-0.8,0.9-1.4,1.5c-0.6,0.6-1.3,1.1-2,1.5c-0.7,0.5-1.4,0.9-2.1,1.2C299.9,59.4,299.2,59.6,298.6,59.6"/>
<path d="M310.7,51.6c0-0.2,0-0.5-0.1-0.8c0-0.4-0.1-0.7-0.2-1.1c-0.1-0.3-0.3-0.6-0.4-0.9c-0.2-0.3-0.4-0.4-0.6-0.4
	c-0.4,0-0.7,0.1-0.9,0.3c-0.2,0.2-0.4,0.5-0.6,0.8c-0.2,0.3-0.3,0.7-0.3,1c-0.1,0.4-0.1,0.7-0.1,1c0.2-0.2,0.4-0.4,0.6-0.6
	c0.2-0.2,0.4-0.2,0.7-0.2c0.2,0,0.3,0,0.5,0.1c0.2,0.1,0.3,0.2,0.4,0.3c0,0.1,0,0.1,0,0.2c0,0.1,0,0.1,0,0.2c0,0.1-0.1,0.2-0.2,0.2
	c-0.1,0-0.2,0-0.2,0c-0.1,0-0.3,0.1-0.5,0.2c-0.2,0.1-0.3,0.3-0.5,0.4c-0.1,0.2-0.3,0.3-0.4,0.5c-0.1,0.2-0.2,0.3-0.3,0.4
	c0.4,1.1,1,1.9,1.9,2.6c0.3-0.7,0.5-1.4,0.7-2.1C310.6,53,310.7,52.3,310.7,51.6 M309.3,56.4c-0.4-0.3-0.8-0.6-1.2-0.9
	c-0.4-0.3-0.7-0.7-0.9-1.2c-0.2,0.5-0.5,1.1-0.8,1.9c-0.3,0.7-0.4,1.4-0.4,1.9c0,0.2,0,0.4,0.1,0.6c0.1,0.2,0.2,0.2,0.5,0.2
	c0.2,0,0.5-0.1,0.7-0.3c0.3-0.2,0.5-0.4,0.8-0.7c0.2-0.3,0.5-0.5,0.7-0.8C309.1,56.8,309.2,56.6,309.3,56.4 M311.4,57.3
	c-0.6,0-1.1-0.1-1.5-0.4c-0.2,0.3-0.4,0.7-0.7,1c-0.3,0.4-0.6,0.7-0.9,1c-0.3,0.3-0.7,0.5-1.1,0.7c-0.4,0.2-0.8,0.3-1.2,0.3
	c-0.6,0-0.9-0.2-1.1-0.5c-0.2-0.3-0.3-0.7-0.3-1.2c0-0.4,0.1-0.9,0.2-1.4c0.1-0.5,0.3-1,0.5-1.5c0.2-0.5,0.4-1,0.7-1.4
	c0.2-0.5,0.5-0.9,0.7-1.2c0-0.1,0-0.3-0.1-0.5c0-0.2,0-0.3,0-0.5c0-0.5,0.1-1,0.2-1.5c0.2-0.5,0.4-1,0.7-1.4c0.3-0.4,0.7-0.8,1.1-1
	c0.4-0.3,0.9-0.4,1.4-0.4c0.3,0,0.6,0.1,0.9,0.3c0.2,0.2,0.5,0.5,0.6,0.8c0.2,0.3,0.3,0.7,0.4,1c0.1,0.4,0.1,0.7,0.1,1
	c0,0.6,0,1.1-0.1,1.6c-0.1,0.5-0.2,0.9-0.4,1.4c-0.2,0.4-0.4,0.9-0.6,1.3c-0.2,0.4-0.4,0.9-0.7,1.4c0.4,0.2,0.9,0.4,1.4,0.4
	c0.6,0,1-0.1,1.5-0.3c0.4-0.2,0.8-0.5,1.1-0.7c0.3-0.3,0.5-0.5,0.7-0.7c0.2-0.2,0.3-0.3,0.4-0.3c0.2,0,0.3,0.1,0.3,0.3
	c0,0.1,0,0.1-0.1,0.2c-0.2,0.3-0.4,0.6-0.7,0.9s-0.6,0.5-1,0.8c-0.4,0.2-0.7,0.4-1.1,0.5C312.2,57.2,311.8,57.3,311.4,57.3"/>
<path d="M322.7,53.5c0.2-0.4,0.6-1,1-1.7c0.4-0.7,0.9-1.3,1.5-1.9c0.6-0.6,1.1-1.1,1.7-1.6c0.6-0.4,1.2-0.7,1.8-0.7
	c0.5,0,0.9,0.2,1,0.6c0.2,0.4,0.2,0.8,0.2,1.2c0,0.4,0,0.9-0.1,1.4c-0.1,0.5-0.2,1-0.4,1.6c-0.2,0.5-0.3,1-0.5,1.5
	c-0.2,0.5-0.4,0.9-0.6,1.3c-0.3,0.6-0.7,1.3-1.2,2c-0.5,0.7-1,1.3-1.6,1.9c-0.6,0.6-1.2,1-2,1.4c-0.7,0.4-1.5,0.6-2.2,0.6
	c-0.1,0-0.2,0-0.4,0c-0.2,0-0.4,0-0.6-0.1c-0.2,0-0.3-0.1-0.5-0.2c-0.1-0.1-0.2-0.2-0.2-0.3c0-0.2,0.1-0.2,0.2-0.2
	c0.2,0,0.4,0,0.6,0.1c0.2,0.1,0.5,0.1,0.8,0.1c0.7,0,1.3-0.2,2-0.6c0.6-0.4,1.2-0.9,1.7-1.5c0.5-0.6,1-1.2,1.3-1.9
	c0.4-0.7,0.7-1.3,0.9-1.9c0.1-0.2,0.2-0.6,0.3-0.9c0.1-0.4,0.2-0.7,0.2-1.1c0.1-0.4,0.1-0.7,0.2-1.1c0-0.4,0.1-0.7,0.1-1
	c0-0.1,0-0.2,0-0.4c0-0.2,0-0.3-0.1-0.5c0-0.1-0.1-0.3-0.2-0.4c-0.1-0.1-0.2-0.2-0.3-0.2c-0.3,0-0.7,0.2-1.1,0.5
	c-0.4,0.3-0.8,0.8-1.3,1.4c-0.4,0.6-0.8,1.2-1.3,1.9c-0.4,0.7-0.8,1.4-1.1,2c-0.3,0.7-0.6,1.3-0.8,1.9c-0.2,0.6-0.3,1-0.3,1.4
	c0,0.4,0.1,0.6,0.3,0.7c0.2,0.1,0.3,0.2,0.3,0.4c0,0.1-0.1,0.2-0.2,0.2c-0.3,0-0.5-0.1-0.7-0.2c-0.2-0.1-0.4-0.3-0.5-0.6
	c-0.1-0.2-0.2-0.5-0.2-0.7c-0.1-0.3-0.1-0.5-0.1-0.7c0-0.8,0.2-1.7,0.5-2.8c0.3-1,0.7-2.1,1.2-3.3c0.5-1.1,1.1-2.3,1.7-3.5
	c0.6-1.2,1.3-2.3,1.9-3.4c0.6-1.1,1.3-2.1,1.9-3.1c0.6-0.9,1.2-1.7,1.6-2.4c0.4-0.5,0.8-1.1,1.2-1.7c0.5-0.6,0.9-1.2,1.4-1.5
	c0.2-0.2,0.5-0.3,0.9-0.3c0.1,0,0.3,0,0.6,0.1c0.3,0.1,0.4,0.2,0.4,0.4c0,0.1,0,0.2-0.1,0.2c-0.5,0.5-0.9,0.9-1.3,1.4
	c-0.4,0.5-0.8,1-1.2,1.5c-0.7,0.9-1.5,1.9-2.3,3.1c-0.9,1.2-1.7,2.5-2.5,3.9c-0.8,1.4-1.6,2.7-2.2,4C323.5,51.2,323,52.4,322.7,53.5
	"/>
<path d="M335.4,49.8c-0.2,0-0.5,0.2-0.9,0.6c-0.3,0.4-0.6,0.8-1,1.3c-0.3,0.5-0.6,1-0.8,1.5c-0.2,0.5-0.4,0.8-0.5,1.1
	c0.3-0.1,0.7-0.4,1.1-0.6c0.4-0.3,0.8-0.6,1.2-1c0.4-0.4,0.7-0.7,1-1.2c0.3-0.4,0.4-0.8,0.4-1.2C335.9,50,335.8,49.8,335.4,49.8
	 M332.8,59.4c-1,0-1.6-0.3-2-1c-0.4-0.6-0.6-1.4-0.6-2.3c0-0.7,0.2-1.4,0.5-2.3c0.3-0.9,0.8-1.7,1.3-2.4c0.6-0.8,1.2-1.4,1.9-1.9
	c0.7-0.5,1.4-0.8,2.2-0.8c0.3,0,0.5,0.1,0.7,0.4c0.2,0.3,0.3,0.5,0.3,0.8c0,0.5-0.2,1-0.6,1.5c-0.4,0.6-0.8,1.1-1.4,1.6
	c-0.5,0.5-1.1,0.9-1.7,1.3c-0.6,0.4-1.1,0.7-1.5,0.8c-0.1,0.3-0.1,0.6-0.2,0.9c-0.1,0.3-0.1,0.6-0.1,0.9c0,0.5,0.1,0.9,0.4,1.2
	c0.2,0.3,0.6,0.5,1.2,0.5c0.5,0,1.1-0.1,1.6-0.3c0.6-0.2,1.1-0.5,1.6-0.9s1-0.7,1.5-1.2c0.5-0.4,0.9-0.8,1.2-1.2
	c0.1-0.1,0.1-0.2,0.2-0.3c0.1-0.1,0.2-0.1,0.4-0.1c0.1,0,0.2,0.1,0.2,0.2c0,0.1,0,0.1-0.1,0.2c-0.3,0.5-0.8,1-1.3,1.6
	c-0.5,0.5-1.1,1-1.8,1.4c-0.6,0.4-1.3,0.8-2,1C334.1,59.2,333.4,59.4,332.8,59.4"/>
<path fill="#009CE0" d="M324.3,18.2C324.3,18.2,324.3,18.2,324.3,18.2l-0.6,0.1c2-7.5,10.4-14.2,14.7-11c5.1,3.7-2.5,12.4-7.9,7.2
	c5,1.5,7.4-2.2,4.1-3.9C332.3,9.2,327.8,10.2,324.3,18.2"/>
<path fill="#009CE0" d="M323.2,18.3c0.6-3.7,2.2-13.5,2.2-15c0-1.8-1.1-3.3-2.4-3.3c-1.3,0-2.4,1.5-2.4,3.3c0,1.5,1.6,11.5,2.2,15.1
	L323.2,18.3L323.2,18.3z"/>
<path fill="#009CE0" d="M325.1,19.4c-0.1-0.4-0.6-0.7-1.1-0.7c0,0,0,0,0,0l-0.7,0.1l0,0l-0.5,0.1l-0.1,0l-0.5,0.1l-0.2,0
	c-0.6,0.1-0.9,0.5-0.9,1c0.1,0.5,0.6,0.7,1.1,0.7l0.1,0l0.5-0.1l0.3,0l0.8-0.1l0.3-0.1C324.8,20.2,325.2,19.8,325.1,19.4"/>
<path fill="#009CE0" d="M321.8,18.6c0,0,0.4-0.1,0.4-0.1c-2-7.5-10.4-14.4-14.8-11.1c-5.1,3.7,2.5,12.4,7.9,7.2
	c-5,1.5-7.6-2.1-4.3-3.8C313.5,9.4,318.4,10.6,321.8,18.6"/>
<path fill="#009CE0" d="M322.9,32.2c-1.8,0.2,0.3-7.8,0.3-7.8C323.8,26.9,323.9,32.1,322.9,32.2 M324,21l-0.7,0.1
	c0,0.1-0.1,0.7-0.1,1c-0.1-0.2-0.1-0.8-0.2-0.9l-0.6,0.1c0.1,0.3,0.2,0.9,0.4,1.6c-1.9,7.6-2.3,11.8-0.1,11.8
	c2.6,0.1,2.3-4.6,0.8-11.6L324,21z"/>
</svg>
